<?xml version="1.0" encoding="UTF-8" standalone="no"?>
<!-- Created with Inkscape (http://www.inkscape.org/) -->

<svg
   width="210mm"
   height="297mm"
   viewBox="0 0 210 297"
   version="1.1"
   id="svg5"
   inkscape:version="1.1.1 (3bf5ae0d25, 2021-09-20)"
   sodipodi:docname="logo.svg"
   xmlns:inkscape="http://www.inkscape.org/namespaces/inkscape"
   xmlns:sodipodi="http://sodipodi.sourceforge.net/DTD/sodipodi-0.dtd"
   xmlns="http://www.w3.org/2000/svg"
   xmlns:svg="http://www.w3.org/2000/svg">
  <sodipodi:namedview
     id="namedview7"
     pagecolor="#ffffff"
     bordercolor="#666666"
     borderopacity="1.0"
     inkscape:pageshadow="2"
     inkscape:pageopacity="0.0"
     inkscape:pagecheckerboard="0"
     inkscape:document-units="mm"
     showgrid="false"
     inkscape:zoom="0.77771465"
     inkscape:cx="84.864031"
     inkscape:cy="226.94699"
     inkscape:window-width="2560"
     inkscape:window-height="1369"
     inkscape:window-x="-8"
     inkscape:window-y="-8"
     inkscape:window-maximized="1"
     inkscape:current-layer="layer1" />
  <defs
     id="defs2">
    <rect
       x="153.01242"
       y="200.58771"
       width="167.15643"
       height="145.29751"
       id="rect20555" />
    <rect
       x="21.858917"
       y="20.573098"
       width="327.88376"
       height="312.45388"
       id="rect4917" />
    <clipPath
       clipPathUnits="userSpaceOnUse"
       id="clipPath32799">
      <path
         id="path32801"
         style="fill:#ff0000;fill-opacity:1;fill-rule:nonzero;stroke:none;stroke-width:0.83567"
         d="m -1507.7099,1475.4251 -916.8265,866.9887 -768.0519,920.6639 916.8265,-866.9887 z" />
    </clipPath>
    <clipPath
       clipPathUnits="userSpaceOnUse"
       id="clipPath33051">
      <path
         id="path33053"
         style="fill:#ff0000;fill-opacity:1;fill-rule:nonzero;stroke:none"
         d="M 24.132812,8.2734375 V 451.15039 c 8.85018,-2.14555 13.605857,-1.48113 3.044922,-2.24023 -0.595086,0.3399 -1.192573,0.67584 -1.8125,0.96679 -0.55441,0.26003 1.035466,-0.6565 1.552735,-0.98437 0.110255,0.008 0.152666,0.01 0.259765,0.0176 0.537932,-0.30727 1.074781,-0.61868 1.625,-0.90235 2.588221,-1.33432 5.185666,-2.64894 7.802735,-3.92578 7.488887,-3.65366 11.657055,-5.32635 19.148437,-9.41797 1.951555,-2.07751 4.510792,-4.06203 7.929688,-5.77148 5.571881,-2.78593 11.083845,-5.69713 16.716797,-8.35742 41.422359,-19.56269 83.390759,-38.02589 125.234379,-56.65821 11.46687,-5.10602 23.12095,-9.80772 34.41796,-15.27929 14.10141,-6.82984 27.82963,-14.40448 41.74415,-21.60743 19.01391,-10.78702 25.12439,-12.66448 40.17773,-26.05468 0.90939,-0.80892 1.07887,-2.18613 1.7168,-3.22266 0.41954,-0.68169 0.91112,-1.31523 1.38281,-1.96289 -0.38628,0.53383 -0.78343,1.10808 -0.45117,1.01172 5.87531,-1.70391 11.39891,-4.44965 17.09765,-6.67383 2.22334,-0.86775 3.73959,-1.27265 4.6836,-1.30273 9.12544,-0.29085 -35.35472,34.46477 -14.23438,25.17968 0.7711,-0.33899 1.52388,-0.72765 2.28711,-1.08789 1.26958,-0.83002 2.53114,-1.67192 3.79688,-2.50781 1.97601,-0.94933 3.97062,-1.85993 5.92773,-2.84766 0.61478,-0.31027 -2.49234,1.16409 -1.89453,0.82227 1.24134,-0.7098 6.55269,-3.7667 8.58398,-4.69727 1.56097,-0.7151 3.14539,-1.37855 4.72461,-2.05273 0.0255,-0.0224 0.0817,-0.0617 0.10352,-0.082 3.56054,-3.3152 1.55288,-1.46509 7.73828,-6.60352 0.68953,-0.51849 1.37766,-1.03774 2.06836,-1.55468 0.065,-0.0579 0.12395,-0.1224 0.18945,-0.17969 0.10317,-0.0903 0.16177,-0.11211 0.33203,-0.24219 2.63843,-2.34597 5.27875,-4.69008 7.91797,-7.03516 4.64012,-3.39361 9.77341,-5.98605 14.98047,-8.38281 2.14417,-1.2882 3.39324,-2.00849 5.16797,-3.0332 1.4668,-1.15306 2.93206,-2.30603 4.40625,-3.44922 -0.41042,0.23967 -1.50182,1.16134 -1.14844,0.84375 0.21945,-0.19713 1.23846,-1.09464 2.22461,-1.95898 -0.008,-0.21266 -0.0264,-0.42395 -0.0332,-0.63672 1.61062,-1.13823 3.22141,-2.27584 4.83203,-3.41407 1.69274,-1.39377 3.31185,-2.67942 4.82812,-3.75976 3.23475,-5.00859 5.16759,-5.7945 12.08985,-8.20703 5.08596,-7.78103 9.85032,-13.90646 8.48633,-7.85742 1.60288,-1.16437 3.23647,-2.29867 4.79492,-3.51368 -0.19197,0.086 -0.36968,0.12466 -0.48633,0.0469 -0.44504,-0.29733 0.7926,-0.719 1.18945,-1.07813 4.68768,-2.61598 9.07583,-7.70498 14.03907,-10.23047 2.57629,-1.31082 5.14388,-2.64243 7.7207,-3.95312 8.13742,-6.08271 10.22512,-8.25172 20.25,-12.33594 2.62545,-1.06963 -5.20595,2.29653 -7.60156,3.8125 -2.03052,1.28493 -7.69721,5.71327 -5.59961,4.54102 4.79965,-2.68231 9.41033,-5.68392 14.01953,-8.6875 0.67332,-0.74555 1.34025,-1.49645 2.02148,-2.23438 1.60029,-1.29203 3.1458,-2.65576 4.80078,-3.87695 5.20831,-3.84318 5.86556,-4.04779 10.7461,-6.97656 0.39692,-0.2382 0.78872,-0.48567 1.18164,-0.73047 0.24862,-0.15492 0.92329,-0.23688 0.74414,-0.46875 -0.18278,-0.23677 -0.54308,0.25136 -0.81445,0.37695 2.25747,-1.81816 1.69658,-1.39495 5.5,-4.11328 0.65865,-0.47073 1.26867,-1.04052 1.94531,-1.48242 3.91247,-3.80903 8.3565,-7.11124 12.96289,-9.90625 1.85318,-1.12445 4.27993,-2.14882 6.72461,-3.03711 4.13589,-2.66752 8.11073,-5.08136 12.83594,-7.67383 0.38743,-0.18329 0.77379,-0.36931 1.16211,-0.55078 0.43574,-0.23804 0.89557,-0.44554 1.33007,-0.67578 0.50347,-0.26677 1.02526,-0.47714 1.55664,-0.70508 0.808,-1.25947 1.61324,-2.52059 2.44922,-3.75781 4.3101,-1.69839 6.01052,-2.34458 8.57032,-3.33594 0.18581,-0.13505 0.37066,-0.27142 0.55664,-0.40625 0.15559,-0.18338 0.31927,-0.35926 0.47656,-0.54101 -0.11237,0.0233 -0.26384,0.0707 -0.36914,0.0898 -0.31669,0.0576 0.16268,-0.16574 0.64062,-0.39649 0.56743,-0.64822 1.11062,-1.31757 1.70703,-1.93945 3.66703,-3.82359 12.07771,-8.30824 17.5586,-11.19922 1.02441,-0.91446 2.05937,-1.8197 3.12304,-2.6875 2.93768,-2.39649 9.92377,-5.88857 12.84376,-7.44726 0.86281,-0.821 1.83453,-1.6085 2.93945,-2.38282 1.23248,-1.02459 2.49002,-2.02259 3.79297,-3.07617 0.17055,-0.16059 0.55461,-0.50512 0.83203,-0.75781 0.11025,-0.0599 0.38883,-0.23535 0.33008,-0.17969 2.4104,-1.98126 4.80661,-3.97813 7.21093,-5.96679 2.41625,-1.56911 4.77242,-3.22893 7.13282,-4.87891 -2.86575,-6.08387 0.60953,-14.82941 13.08007,-19.42383 4.07177,-1.50012 8.33059,-2.56554 12.21485,-4.499999 13.79391,-6.869707 40.29699,-22.49601 54.16797,-30.833984 8.68992,-5.223587 62.47452,-37.877472 75.66601,-46.169922 3.04418,-1.913637 6.0558,-3.87886 9.08985,-5.808594 V 8.2734375 Z M 596.25391,134.57031 c -0.0593,0.0488 -0.1184,0.0978 -0.17774,0.14649 0.0696,-0.0584 0.12297,-0.0967 0.19336,-0.15625 0.005,-0.004 -0.0185,0.0109 -0.0156,0.01 z m -0.17774,0.14649 c -0.3533,0.29646 -0.64941,0.52015 -0.98437,0.79101 -0.0568,0.0535 -0.3742,0.33088 -0.27735,0.25196 0.42307,-0.34472 0.83998,-0.69664 1.26172,-1.04297 z m -43.69726,30.37109 c -0.083,0.0979 -0.17132,0.1908 -0.25391,0.28906 13.54198,-5.24063 5.89087,-2.01977 1.12891,-0.92773 -0.29243,0.21185 -0.58266,0.42671 -0.875,0.63867 z m -0.25391,0.28906 c -0.0884,0.0342 -0.21238,0.0822 -0.30273,0.11719 -0.22764,0.16544 -0.45442,0.33206 -0.68165,0.49805 -3.11733,3.89908 -12.8819,15.2268 -9.35156,11.69726 3.78918,-3.78829 6.88711,-8.20926 10.33594,-12.3125 z m -11.32227,7.21094 c -0.005,0.008 -0.009,0.0158 -0.0137,0.0234 0.26738,-0.12861 0.53847,-0.24986 0.80469,-0.38086 0.25968,-0.12778 -0.5211,0.24164 -0.79102,0.35742 z m -0.0137,0.0234 c -0.95432,0.45902 -1.91359,0.90904 -2.87304,1.35742 -0.39328,0.21484 -0.76881,0.45349 -1.07227,0.77734 -1.48905,1.58912 -3.04294,3.14189 -4.58984,4.69532 0.10397,-0.0234 0.11855,-0.0311 0.23242,-0.0566 2.70357,-0.53218 1.64785,-0.28025 -0.45508,0.2832 -2.27955,2.28909 -4.50103,4.62006 -6.61719,7.03515 2.26213,-0.59042 4.55832,-0.9859 6.90821,-1.06835 0.12001,-0.004 0.30667,0.003 0.43164,0 2.64578,-4.36686 5.28673,-8.73819 8.03515,-13.02344 z m -8.75781,7.05664 c 0.0748,-0.0752 0.14782,-0.15141 0.22266,-0.22656 -2.02801,0.45576 -2.50363,0.61452 -3.85547,1.26953 1.60652,-0.48835 2.58739,-0.76287 3.63281,-1.04297 z m -102.25195,66.37305 c -1.75157,1.27237 -3.43595,2.61196 -4.80664,4.27148 -0.82748,1.00184 -1.59319,2.04923 -2.33789,3.11133 4.97313,-1.73927 12.20613,-4.35104 23.95898,-9.63867 0.52614,-0.23672 -1.33271,0.44387 -1.88672,0.25586 -12.11245,3.27256 -6.49602,0.60351 -16.04883,5.83203 0.56015,-1.64407 0.90224,-2.86146 1.1211,-3.83203 z m -7.14453,7.38281 c -0.5227,0.1828 -0.87081,0.31046 -1.3418,0.47461 -2.5951,3.97025 -5.13739,8.17326 -7.10547,11.5664 0.0587,0.43357 0.11952,0.86705 0.17578,1.30078 2.81231,-4.41176 5.27636,-9.07015 8.27149,-13.34179 z m -56.60743,39.50781 c -0.0717,0.0637 -0.14318,0.12766 -0.21484,0.19141 0.50778,-0.38096 1.01811,-0.75778 1.52148,-1.14453 0.42774,-0.32865 -0.63657,0.44122 -1.30664,0.95312 z m -0.21484,0.19141 c -0.10231,0.0768 -0.20424,0.15383 -0.30664,0.23047 -0.2534,0.22566 -0.49293,0.46686 -0.74024,0.69921 0.34834,-0.31058 0.69818,-0.61951 1.04688,-0.92968 z M 774.81641,47.388672 c -6.45541,4.012999 -17.38412,10.70031 -29.33985,17.990234 7.69447,23.775424 9.39954,67.228514 19.66602,81.251954 3.27287,-0.55779 6.49147,-1.24939 9.67383,-2.03516 z m -9.67383,99.242188 c -9.61727,1.63906 -19.40929,2.86358 -28.15039,6.89258 -5.57227,2.5684 12.22309,1.49716 18.35742,1.36718 3.01153,-0.0638 5.90793,-1.18918 8.82422,-1.94335 0.86585,-0.22393 1.66418,-0.65613 2.49609,-0.98438 0.77348,-0.59194 1.53964,-1.19367 2.31055,-1.78906 -1.40281,-0.75759 -2.67659,-1.95669 -3.83789,-3.54297 z m 3.83789,3.54297 c 0.24823,0.13406 0.49537,0.27148 0.75195,0.37695 1.49119,-0.85207 3.02886,-1.64298 4.47461,-2.55469 0.20311,-0.19271 0.33058,-0.31218 0.60938,-0.57812 v -1.74609 c -1.94538,1.50048 -3.89147,3.00019 -5.83594,4.50195 z m -181.27149,-8.55664 c -1.35078,0.74943 -2.62265,1.5043 -3.35742,2.08789 -3.7598,2.9862 -13.97596,13.11378 -10.125,10.24609 7.89945,-5.88246 10.57478,-9.41945 13.48242,-12.33398 z m 187.10743,5.91015 c -0.22962,0.21977 -0.68262,0.67364 -0.88672,0.86524 0.36631,-0.26034 0.54819,-0.4938 0.88672,-0.7461 z m -0.88672,0.86524 c -0.28605,0.20329 -0.50302,0.38445 -0.81055,0.5957 -0.59783,0.41066 -1.74375,1.13559 -2.72461,1.7793 0.17604,0.0539 0.35327,0.10393 0.5332,0.14453 0.96667,-0.7054 1.87025,-1.45716 3.00196,-2.51953 z m -3.00196,2.51953 c -1.59454,1.16357 -4.23841,2.8501 -9.0039,6.11719 0.87927,-0.70926 3.47611,-2.88408 2.57031,-2.20899 -1.18939,0.88649 -2.31313,1.85865 -3.45312,2.8086 -10e-4,9.1e-4 -0.003,6e-4 -0.004,0.002 -0.28657,0.23878 -0.57789,0.47174 -0.86719,0.70703 -3.28789,1.68815 -6.57824,3.3707 -9.86328,5.06445 -0.21965,0.17263 -0.55437,0.42577 -0.70898,0.55274 -4.42409,3.15459 -8.33791,6.37554 -13.23633,8.66797 -0.96471,0.45147 -1.95248,0.8525 -2.93164,1.27148 -4.25063,3.079 -6.53752,4.58584 -12.59961,7.39649 -0.16452,0.0763 0.32538,-0.16034 0.48828,-0.24024 -1.00079,0.46967 -2.66183,1.35463 -4.2832,2.2207 -0.69881,0.59136 -1.23138,0.88717 -1.86328,1.37305 5.35671,6.2896 2.10104,17.17185 -12.94532,21.27539 -2.35733,0.64291 -4.81951,0.98338 -7.07226,1.92969 -3.98933,1.67582 -7.74936,3.85686 -11.56446,5.89844 -12.4024,6.63685 -33.80779,20.21464 -41.52343,24.9707 -31.61113,19.48567 -30.35432,18.80912 -24.30469,15.15625 -9.87711,6.01414 -28.0109,17.06797 -65.95703,40.22266 -14.80001,8.98571 -34.54087,21.09811 -53.2168,32.25195 -3.06581,3.27013 -6.25034,6.44309 -9.26172,9.75781 -6.56989,3.99048 -8.67953,5.46744 -11.18359,6.58008 0.20552,0.53787 0.42045,1.11138 0.61719,1.60938 8.80885,4.15558 9.0949,23.02122 0,0 -0.84284,-0.39762 -1.76745,-0.63619 -2.76563,-0.7129 -3.07135,2.50448 -14.65861,9.81826 -14.36719,9.44532 2.8234,-3.6121 5.38647,-5.94663 7.72071,-7.43555 -1.40966,0.41742 -3.29077,0.98433 -5.04102,1.50977 -1.38885,1.27615 -2.75521,2.58103 -4.10937,3.90039 0.14706,1.13231 0.28327,2.26579 0.46289,3.39453 0.53671,-0.44051 1.0708,-0.88538 1.63086,-1.29688 1.036,-0.76119 -0.0405,0.36837 -1.51172,1.79102 0.10451,0.30526 0.26719,0.48366 0.48047,0.54883 3.42669,-2.28473 3.4485,-2.21655 5.07421,-3.76172 -1.99829,1.99449 -4.07142,4.06813 -5.07421,3.76172 -1.20368,0.80254 -3.73913,2.56338 -6.02539,4.14453 -0.57877,0.42094 -1.15851,0.84092 -1.7461,1.25 -0.0221,0.0195 -0.0423,0.0411 -0.0645,0.0605 -0.0923,0.0588 -0.13132,0.081 -0.27735,0.17579 -2.64732,1.83152 -5.35028,3.58877 -7.94726,5.49023 -0.71652,0.52462 1.56308,-0.85032 2.30273,-1.3418 0.98128,-0.65204 3.78381,-2.80693 2.85352,-2.08398 -1.16908,0.90851 -2.3801,1.76195 -3.57031,2.64258 -3.53976,2.03335 -7.06854,4.08527 -10.61914,6.09961 -0.17801,0.10099 -0.3775,0.15893 -0.5625,0.24609 -1.88747,1.78301 -3.87157,3.45542 -6.00391,4.87695 -1.98803,1.1679 -0.16997,0.0377 -3.89844,3.35547 -1.79667,1.59878 -3.55452,3.24498 -5.43359,4.7461 -6.50336,5.19515 -13.66161,10.04348 -21.61914,12.71289 0.13697,-0.12968 0.59995,-0.40953 0.41211,-0.39063 -0.36488,0.0352 -0.70363,0.22761 -1.02149,0.41016 -0.18139,0.1042 -5.25257,3.02747 -8.27148,4.71484 -2.86662,2.23617 -5.68208,4.56965 -8.92969,6.16797 -0.49494,0.24358 -1.01611,0.425 -1.51953,0.64844 -2.56554,1.96711 -5.33196,3.77471 -8.44336,5.5 -6.32908,3.50948 -8.53051,4.14548 -13.99219,6.04492 -0.0664,0.0232 -0.21563,0.0733 -0.28515,0.0977 -1.23593,4.46656 -5.18092,9.13314 -12.5625,12.48828 -15.79945,7.18129 -31.53004,14.49302 -47.39649,21.52929 -4.89037,2.16877 -9.90865,4.06224 -14.6914,6.45899 -10.04685,5.03471 -19.84631,10.54808 -29.76954,15.82226 -27.89021,15.58432 -22.69863,11.93286 -52.10546,32.08203 -6.02515,4.12838 -11.80565,8.60186 -17.74024,12.85938 -2.61474,1.87581 -5.13415,6.90076 -7.87109,6.29492 -1.3505,1.45274 -2.83879,1.85054 -4.6543,0.35938 -0.13795,0.11566 -0.2743,0.23391 -0.41211,0.34961 -0.6297,0.52868 -2.31271,2.24823 -1.94726,1.51171 0.45217,-0.91124 0.99706,-1.76777 1.5664,-2.61132 -1.30164,-1.39116 -2.77148,-3.73229 -4.46094,-7.24219 -0.0922,-0.10497 -0.1844,-0.20991 -0.27343,-0.31445 -1.67556,-0.90826 -3.09509,-1.55761 -4.29688,-2.03907 2.15834,12.31533 4.91961,26.53353 -2.72461,15.23438 -2.43371,-3.59737 -4.86858,-7.19395 -7.30273,-10.79102 -1.38746,0.53485 -2.37793,0.96311 -5.1836,1.88086 -2.54881,0.83372 -6.64004,2.45819 -10.5957,3.96485 0.049,0.1309 0.0817,0.26459 0.125,0.39648 0.29912,-0.0867 0.58574,-0.22611 0.88672,-0.30469 0.30504,-0.0796 -0.65774,0.30809 -0.85156,0.41211 2.29261,7.25061 -3.89885,15.83594 -18.61133,15.83594 -2.57164,0 -5.27243,-0.79899 -7.7168,0 -5.38232,1.75937 -37.152194,17.11066 -42.099607,19.34961 -13.842291,6.43617 -27.797397,12.61739 -41.775391,18.74805 V 694.07227 H 774.81641 V 150.72852 c -1.38364,0.35933 -2.68917,0.45428 -3.88868,0.18359 z M 159.98242,518.55859 c -0.0172,-0.0981 -0.0298,-0.1815 -0.0469,-0.27929 -0.10682,0.0487 -0.2135,0.0978 -0.32032,0.14648 0.13242,0.051 0.22896,0.0774 0.36719,0.13281 z m 4.29688,2.03907 c 0.0541,0.0293 0.11133,0.0639 0.16601,0.0937 -0.5129,-1.07492 -1.08182,-2.44903 -1.63672,-3.7461 -0.38713,0.13813 -0.39508,0.16333 -0.88476,0.33594 0.64018,1.07071 1.38018,2.17122 2.35547,3.31641 z M 453.14648,361.07227 c 0.11392,-0.0788 0.22813,-0.15719 0.3418,-0.23633 0.0725,-0.0639 0.14265,-0.13109 0.21484,-0.19532 -0.66247,0.46201 -0.77511,0.52139 -1.53124,1.05274 -0.31514,0.22142 0.46066,-0.28738 0.9746,-0.62109 z m 22.84766,-17.48829 c 0.0355,-0.029 0.11724,-0.0837 0.15039,-0.11132 -0.10172,0.0359 -0.18739,0.0711 -0.29297,0.10742 0.0469,0.003 0.096,-4.7e-4 0.14258,0.004 z m 0.15039,-0.11132 c 0.71535,-0.25261 1.39648,-0.51786 1.99805,-0.78516 -0.0907,-0.23747 -0.17903,-0.46553 -0.27149,-0.71094 -0.47941,0.43075 -0.81122,0.73664 -1.33789,1.20899 -0.0691,0.062 -0.30306,0.21578 -0.38867,0.28711 z m 95.24219,-191.4668 c -0.7335,0.45034 -1.54737,0.92093 -2.0586,1.30859 -2.6537,2.01237 -9.83152,8.97407 -7.2207,6.90625 3.23835,-2.56484 6.21899,-5.43674 9.2793,-8.21484 z m 174.39844,13.7168 c -1.30178,0.66805 -2.60053,1.34172 -3.9043,2.00586 1.234,-0.48987 3.29322,-1.34776 3.70117,-1.48633 -0.24727,0.0345 -0.38812,-0.0249 0.20313,-0.51953 z m -222.61524,34.77148 c -2.14389,0.11696 -4.28847,0.23036 -6.43164,0.34961 -2.38244,5.95756 -4.22658,12.39839 -1.55664,9.52734 2.89209,-3.10993 5.51941,-6.43056 7.98828,-9.87695 z M 496,207.32031 c 0.27561,-0.0743 -0.50212,0.12875 -0.41602,0.10352 -0.003,0.004 -0.005,0.009 -0.008,0.0137 0.14151,-0.0383 0.28229,-0.079 0.42383,-0.11719 z m -2.11523,0.5293 c -1.86619,0.49247 -3.83445,1.05675 -5.55079,1.58398 1.83189,-0.50882 3.66421,-1.01397 5.49805,-1.51562 0.0182,-0.0242 0.0344,-0.0441 0.0527,-0.0684 z m -17.43165,8.62109 c -1.08679,0.88088 -2.03277,1.6897 -2.69921,2.29297 -1.87612,1.69832 -6.66117,7.61109 -4.86914,5.82422 2.61983,-2.61234 5.09561,-5.36338 7.56835,-8.11719 z m -21.56835,41.34961 c 1.25029,20.86289 1.23749,41.86442 2.42187,62.73438 0.69288,-0.50354 0.52773,-0.39386 1.29297,-0.94922 0.6539,-0.47457 1.54158,-0.51752 2.24219,-0.91992 2.78472,-1.59939 5.42236,-3.16825 8.14453,-4.75391 -3.97891,-14.00634 -8.6091,-31.92243 -14.10156,-56.11133 z m -40.39649,0.89649 c -0.76108,0.33377 -2.04867,1.66111 -2.49023,1.39258 -0.22621,0.19661 -0.51709,0.46289 -0.72266,0.63867 0.43281,-0.24957 0.82221,-0.45108 1.13672,-0.56446 0.69201,-0.48904 1.38416,-0.97774 2.07617,-1.46679 z m -22.0332,17.04492 c -0.29072,0.17704 -0.57875,0.35761 -0.86914,0.53516 0.13781,-0.0609 0.27608,-0.12116 0.41406,-0.18165 0.15134,-0.11835 0.30384,-0.23503 0.45508,-0.35351 z m -1.23828,0.94726 c -0.53736,0.27775 -1.07142,0.56129 -1.60938,0.8379 -0.58833,0.38086 -1.17732,0.76047 -1.74609,1.16992 -1.1167,0.80389 -4.12107,3.63676 -3.00781,2.82812 2.15538,-1.56557 4.26157,-3.19862 6.36328,-4.83594 z m 8.80664,0.14649 c -0.75649,1.35021 -1.38339,2.4952 -2.36328,4.19336 0.99159,-1.56838 1.54992,-2.5297 2.39062,-3.89258 -0.009,-0.10029 -0.0186,-0.20047 -0.0273,-0.30078 z m 127.25781,2.06055 c -5.54098,1.35251 -10.93371,3.14254 -16.0625,5.71093 -2.74318,1.37373 -1.69936,2.50849 1.01953,3.44336 4.93793,-3.007 9.96789,-6.06093 15.04297,-9.15429 z m -220.16211,63.41796 c -2.54533,1.40305 -5.53377,3.08057 -8.46484,4.70313 -1.14467,2.33895 -1.69201,3.98486 -0.0859,2.74023 2.99323,-2.31982 5.80808,-4.84128 8.55078,-7.44336 z m 164.47461,4.41016 c 0.73716,-0.68021 -1.34319,1.51301 -2.1582,2.09766 -0.19017,0.13641 -0.41617,0.34379 -0.62696,0.52148 0.85032,-0.8058 1.30257,-1.25107 2.78516,-2.61914 z m -101.88086,66.13477 c -2.42492,0.78045 -4.84841,1.56663 -7.20117,2.52539 -2.15452,0.87794 4.46726,-1.29926 6.70117,-1.94922 0.16971,-0.18883 0.33123,-0.38635 0.5,-0.57617 z m -222.54883,5.25586 c -2.94872,1.32866 -5.8919,2.66942 -8.83789,4.0039 0.0725,0.693 0.20474,1.37951 0.1211,2.08789 12.19715,6.16763 9.08428,21.87813 -9.35938,23.15235 -2.19335,1.67945 -2.84228,1.42389 -2.70508,0.0859 h -1.02929 c -0.1145,0.0832 -0.22514,0.16549 -0.34375,0.25 -0.6015,0.42854 -1.19063,0.68739 -1.76758,0.80469 -0.82893,0.30212 -2.03813,0.64674 -3.58399,1.10742 1.24403,24.58698 -0.51804,58.6795 12.17578,47.06446 19.75367,-18.07495 12.49716,-50.72737 15.33008,-78.55664 z m -22.27539,21.75781 c -0.27948,0.79318 -0.58269,1.57881 -0.90625,2.35742 0.38364,-0.56301 0.71606,-1.4298 0.96289,-2.18945 -0.0186,-0.0566 -0.038,-0.11118 -0.0566,-0.16797 z m -5.34765,7.57226 c 0.027,0.46238 0.051,0.93564 0.0762,1.4043 0.39568,-0.19775 0.81412,-0.41466 1.25976,-0.66016 -0.39012,-0.18065 -0.77075,-0.45042 -1.14843,-0.74414 z m 27.23828,75.42188 c -4.62283,1.40916 -9.37424,2.3721 -14.17774,3.15625 0.1022,0.13463 0.21548,0.26535 0.31055,0.40234 4.12606,-1.02141 8.73438,-1.27206 12.73242,-2.49804 0.39157,-0.33345 0.75368,-0.71113 1.13477,-1.06055 z" />
    </clipPath>
  </defs>
  <g
     inkscape:label="Layer 1"
     inkscape:groupmode="layer"
     id="layer1">
    <path
       id="text4915"
       style="font-style:normal;font-variant:normal;font-weight:normal;font-stretch:normal;font-size:40px;line-height:1.25;font-family:'Century Gothic';-inkscape-font-specification:'Century Gothic, Normal';font-variant-ligatures:normal;font-variant-caps:normal;font-variant-numeric:normal;font-variant-east-asian:normal;white-space:pre;shape-inside:url(#rect4917);fill:#008080;fill-opacity:1;stroke:none;stroke-width:23.5233"
       transform="scale(0.26458333)"
       d="M 118.76172,8.2734375 24.132812,694.07227 H 88.425781 L 153.17188,199.88672 391.77734,694.07227 h 16.75391 l 235.4375,-490.45508 65.19727,490.45508 h 65.65039 L 679.2832,8.2734375 H 668.41797 L 400.38086,570.99219 129.62695,8.2734375 Z"
       clip-path="url(#clipPath33051)" />
    <text
       xml:space="preserve"
       transform="scale(0.26458333)"
       id="text20553"
       style="fill:black;fill-opacity:1;line-height:1.25;stroke:none;font-family:sans-serif;font-style:normal;font-weight:normal;font-size:40px;white-space:pre;shape-inside:url(#rect20555)" />
    <rect
       style="fill:#17a2b8;stroke-width:1.45866"
       id="rect24876"
       width="148.77647"
       height="53.673336"
       x="-2424.5371"
       y="2342.4146"
       transform="matrix(0.84453813,-0.70155901,0.89308529,-0.58526647,-34.574714,-176.81619)"
       inkscape:transform-center-x="-2.0988664"
       inkscape:transform-center-y="5.1970701"
       clip-path="url(#clipPath32799)"
       ry="26.836668"
       rx="0" />
  </g>
</svg>
